[Header]
FileType HTR
DataType HTRS
FileVersion 1
NumSegments 64
NumFrames 4
DataFrameRate 24
EulerRotationOrder ZYX
CalibrationUnits mm
RotationUnits Degrees
GlobalAxisofGravity Y
BoneLengthAxis Y
ScaleFactor 1.0
[SegmentNames&Hierarchy]
Hips	GLOBAL
Spine	Hips
Spine1	Spine
Spine2	Spine1
Neck	Spine2
Head	Neck
LeftEye	Head
RightEye	Head
LeftShoulder	Spine2
LeftArm	LeftShoulder
LeftForeArm	LeftArm
LeftHand	LeftForeArm
LeftHandThumb1	LeftHand
LeftHandThumb2	LeftHandThumb1
LeftHandThumb3	LeftHandThumb2
LeftHandThumb4	LeftHandThumb3
LeftHandIndex1	LeftHand
LeftHandIndex2	LeftHandIndex1
LeftHandIndex3	LeftHandIndex2
LeftHandIndex4	LeftHandIndex3
LeftHandMiddle1	LeftHand
LeftHandMiddle2	LeftHandMiddle1
LeftHandMiddle3	LeftHandMiddle2
LeftHandMiddle4	LeftHandMiddle3
LeftHandRing1	LeftHand
LeftHandRing2	LeftHandRing1
LeftHandRing3	LeftHandRing2
LeftHandRing4	LeftHandRing3
LeftHandPinky1	LeftHand
LeftHandPinky2	LeftHandPinky1
LeftHandPinky3	LeftHandPinky2
LeftHandPinky4	LeftHandPinky3
RightShoulder	Spine2
RightArm	RightShoulder
RightForeArm	RightArm
RightHand	RightForeArm
RightHandPinky1	RightHand
RightHandPinky2	RightHandPinky1
RightHandPinky3	RightHandPinky2
RightHandPinky4	RightHandPinky3
RightHandRing1	RightHand
RightHandRing2	RightHandRing1
RightHandRing3	RightHandRing2
RightHandRing4	RightHandRing3
RightHandMiddle1	RightHand
RightHandMiddle2	RightHandMiddle1
RightHandMiddle3	RightHandMiddle2
RightHandMiddle4	RightHandMiddle3
RightHandIndex1	RightHand
RightHandIndex2	RightHandIndex1
RightHandIndex3	RightHandIndex2
RightHandIndex4	RightHandIndex3
RightHandThumb1	RightHand
RightHandThumb2	RightHandThumb1
RightHandThumb3	RightHandThumb2
RightHandThumb4	RightHandThumb3
LeftUpLeg	Hips
LeftLeg	LeftUpLeg
LeftFoot	LeftLeg
LeftToeBase	LeftFoot
RightUpLeg	Hips
RightLeg	RightUpLeg
RightFoot	RightLeg
RightToeBase	RightFoot
[BasePosition]
Hips	0	0	0	0	0	0	1
Spine	0	0	0	0	0	0	1
Spine1	0	0	0	0	0	0	1
Spine2	0	0	0	0	0	0	1
Neck	0	0	0	0	0	0	1
Head	0	0	0	0	0	0	1
LeftEye	0	0	0	0	0	0	1
RightEye	0	0	0	0	0	0	1
LeftShoulder	0	0	0	0	0	0	1
LeftArm	0	0	0	0	0	0	1
LeftForeArm	0	0	0	0	0	0	1
LeftHand	0	0	0	0	0	0	1
LeftHandThumb1	0	0	0	0	0	0	1
LeftHandThumb2	0	0	0	0	0	0	1
LeftHandThumb3	0	0	0	0	0	0	1
LeftHandThumb4	0	0	0	0	0	0	1
LeftHandIndex1	0	0	0	0	0	0	1
LeftHandIndex2	0	0	0	0	0	0	1
LeftHandIndex3	0	0	0	0	0	0	1
LeftHandIndex4	0	0	0	0	0	0	1
LeftHandMiddle1	0	0	0	0	0	0	1
LeftHandMiddle2	0	0	0	0	0	0	1
LeftHandMiddle3	0	0	0	0	0	0	1
LeftHandMiddle4	0	0	0	0	0	0	1
LeftHandRing1	0	0	0	0	0	0	1
LeftHandRing2	0	0	0	0	0	0	1
LeftHandRing3	0	0	0	0	0	0	1
LeftHandRing4	0	0	0	0	0	0	1
LeftHandPinky1	0	0	0	0	0	0	1
LeftHandPinky2	0	0	0	0	0	0	1
LeftHandPinky3	0	0	0	0	0	0	1
LeftHandPinky4	0	0	0	0	0	0	1
RightShoulder	0	0	0	0	0	0	1
RightArm	0	0	0	0	0	0	1
RightForeArm	0	0	0	0	0	0	1
RightHand	0	0	0	0	0	0	1
RightHandPinky1	0	0	0	0	0	0	1
RightHandPinky2	0	0	0	0	0	0	1
RightHandPinky3	0	0	0	0	0	0	1
RightHandPinky4	0	0	0	0	0	0	1
RightHandRing1	0	0	0	0	0	0	1
RightHandRing2	0	0	0	0	0	0	1
RightHandRing3	0	0	0	0	0	0	1
RightHandRing4	0	0	0	0	0	0	1
RightHandMiddle1	0	0	0	0	0	0	1
RightHandMiddle2	0	0	0	0	0	0	1
RightHandMiddle3	0	0	0	0	0	0	1
RightHandMiddle4	0	0	0	0	0	0	1
RightHandIndex1	0	0	0	0	0	0	1
RightHandIndex2	0	0	0	0	0	0	1
RightHandIndex3	0	0	0	0	0	0	1
RightHandIndex4	0	0	0	0	0	0	1
RightHandThumb1	0	0	0	0	0	0	1
RightHandThumb2	0	0	0	0	0	0	1
RightHandThumb3	0	0	0	0	0	0	1
RightHandThumb4	0	0	0	0	0	0	1
LeftUpLeg	0	0	0	0	0	0	1
LeftLeg	0	0	0	0	0	0	1
LeftFoot	0	0	0	0	0	0	1
LeftToeBase	0	0	0	0	0	0	1
RightUpLeg	0	0	0	0	0	0	1
RightLeg	0	0	0	0	0	0	1
RightFoot	0	0	0	0	0	0	1
RightToeBase	0	0	0	0	0	0	1
[Hips]
189	4.286946774	1016.250854	15.13750935	-1.141968608	1.50384903	-5.408394814	1.0
190	4.350426197	1016.249695	15.13751602	-1.132825494	1.495612383	-5.410188675	1.0
191	4.416326523	1016.251099	15.13554955	-1.122596025	1.487047791	-5.411159992	1.0
192	4.482723236	1016.253662	15.13288593	-1.112155437	1.478518844	-5.411762714	1.0
[Spine]
189	0	101.8159943	1.315000057	1.14030385	-1.317255139	3.011139154	1.0
190	0	101.8159943	1.315000057	1.151904941	-1.314427853	3.013650656	1.0
191	0	101.8159943	1.315000057	1.163379192	-1.311184525	3.016123533	1.0
192	0	101.8159943	1.315000057	1.174902678	-1.307892799	3.018648624	1.0
[Spine1]
189	0	100.8349991	-10.00800037	0.6290130019	0.1716838479	5.94907999	1.0
190	0	100.8349991	-10.00800037	0.6439962983	0.17341277	5.949244022	1.0
191	0	100.8349991	-10.00800037	0.6586398482	0.1751774997	5.949566364	1.0
192	0	100.8349991	-10.00800037	0.6730304956	0.176914826	5.949851513	1.0
[Spine2]
189	0	91	-13.73399925	0.6630935073	0.7007530332	5.861876965	1.0
190	0	91	-13.73399925	0.6781608462	0.700894475	5.862204552	1.0
191	0	91	-13.73399925	0.6928863525	0.7011109591	5.862687588	1.0
192	0	91	-13.73399925	0.7073571086	0.7013292909	5.863130093	1.0
[Neck]
189	0	166.7169952	-25.16200066	0.9727068543	-0.2628093958	-2.191609621	1.0
190	0	166.7169952	-25.16200066	0.9780805111	-0.2610377371	-2.196703672	1.0
191	0	166.7169952	-25.16200066	0.983863771	-0.2591483295	-2.202231646	1.0
192	0	166.7169952	-25.16200066	0.990133822	-0.257335186	-2.207403421	1.0
[Head]
189	0	96.17900085	16.84999847	1.378334761	0.7662242651	-8.224662781	1.0
190	0	96.17900085	16.84999847	1.384231806	0.7680701613	-8.226761818	1.0
191	0	96.17900085	16.84999847	1.390439987	0.7702644467	-8.229652405	1.0
192	0	96.17900085	16.84999847	1.396838427	0.7723398805	-8.231985092	1.0
[LeftEye]
189	30.6760006	64.09500122	92.83599854	0	0	0	1.0
190	30.6760006	64.09500122	92.83599854	0	0	0	1.0
191	30.6760006	64.09500122	92.83599854	0	0	0	1.0
192	30.6760006	64.09500122	92.83599854	0	0	0	1.0
[RightEye]
189	-30.6760006	64.09500122	92.83499908	0	0	0	1.0
190	-30.6760006	64.09500122	92.83499908	0	0	0	1.0
191	-30.6760006	64.09500122	92.83499908	0	0	0	1.0
192	-30.6760006	64.09500122	92.83499908	0	0	0	1.0
[LeftShoulder]
189	45.70400238	109.4599991	-26.28000069	4.886488914	-13.31580925	-5.04098177	1.0
190	45.70400238	109.4599991	-26.28000069	4.890696526	-13.31744289	-5.194242001	1.0
191	45.70400238	109.4599991	-26.28000069	4.894745827	-13.31975746	-5.343553543	1.0
192	45.70400238	109.4599991	-26.28000069	4.898604393	-13.32312012	-5.489610195	1.0
[LeftArm]
189	105.923996	-5.24600029	-22.32099915	-3.112071037	4.509331226	-84.73278809	1.0
190	105.923996	-5.24600029	-22.32099915	-3.109180927	4.506682396	-84.56877899	1.0
191	105.923996	-5.24600029	-22.32099915	-3.107009172	4.505011082	-84.40901184	1.0
192	105.923996	-5.24600029	-22.32099915	-3.105713844	4.502998829	-84.25358582	1.0
[LeftForeArm]
189	278.414978	-0.0009999999311	0	-1.090977821e-05	-14.51363182	-0.0001845731604	1.0
190	278.414978	-0.0009999999311	0	-1.04750934e-05	-14.52101994	-0.0001875807211	1.0
191	278.414978	-0.0009999999311	0	-9.348604181e-06	-14.5290432	-0.0001924752287	1.0
192	278.414978	-0.0009999999311	0	-7.525844012e-06	-14.53681087	-0.000198955735	1.0
[LeftHand]
189	283.2879944	0	0	-27.84262276	-1.218270659	-10.13280773	1.0
190	283.2879944	0	0	-27.86594582	-1.213881016	-10.13172054	1.0
191	283.2879944	0	0	-27.89109039	-1.211676598	-10.13164234	1.0
192	283.2879944	0	0	-27.91484451	-1.208870769	-10.12927246	1.0
[LeftHandThumb1]
189	24.6609993	-15.75	26.8239994	17.99344254	-4.107488632	10.06409645	1.0
190	24.6609993	-15.75	26.8239994	18.00683784	-4.075954914	10.08725452	1.0
191	24.6609993	-15.75	26.8239994	18.01991081	-4.045212269	10.10983658	1.0
192	24.6609993	-15.75	26.8239994	18.03274345	-4.015043259	10.13200092	1.0
[LeftHandThumb2]
189	32.29800034	-18.64699936	18.64699936	-0.5702188015	32.49083328	-2.918173313	1.0
190	32.29800034	-18.64699936	18.64699936	-0.5547898412	32.53059387	-2.90943408	1.0
191	32.29800034	-18.64699936	18.64699936	-0.5397432446	32.56936264	-2.900910378	1.0
192	32.29800034	-18.64699936	18.64699936	-0.5249739289	32.60740662	-2.892544746	1.0
[LeftHandThumb3]
189	26.52600098	-15.31499958	15.31499958	2.009875059	9.032553673	-0.09012349695	1.0
190	26.52600098	-15.31499958	15.31499958	2.020699024	9.072172165	-0.08025371283	1.0
191	26.52600098	-15.31499958	15.31499958	2.031256676	9.110799789	-0.07062763721	1.0
192	26.52600098	-15.31499958	15.31499958	2.041619301	9.148712158	-0.06117834151	1.0
[LeftHandThumb4]
189	19.54599953	-11.28499985	11.28499985	0	0	0	1.0
190	19.54599953	-11.28499985	11.28499985	0	0	0	1.0
191	19.54599953	-11.28499985	11.28499985	0	0	0	1.0
192	19.54599953	-11.28499985	11.28499985	0	0	0	1.0
[LeftHandIndex1]
189	91.09299469	-5.170999527	22.60099792	-0.3096522987	4.680203915	-7.947197437	1.0
190	91.09299469	-5.170999527	22.60099792	-0.308489114	4.678845882	-7.932966709	1.0
191	91.09299469	-5.170999527	22.60099792	-0.3073548973	4.677521706	-7.919092178	1.0
192	91.09299469	-5.170999527	22.60099792	-0.3062419891	4.676222324	-7.90547657	1.0
[LeftHandIndex2]
189	36.76399994	0	0	-0.6331912875	2.779593706	-20.67535973	1.0
190	36.76399994	0	0	-0.6325032711	2.778325319	-20.66115761	1.0
191	36.76399994	0	0	-0.63183254	2.777088404	-20.64731026	1.0
192	36.76399994	0	0	-0.6311742067	2.775874376	-20.63371849	1.0
[LeftHandIndex3]
189	28.83100128	0	0	-0.1115689203	0.8156453967	-10.27272892	1.0
190	28.83100128	0	0	-0.1113145947	0.8142439723	-10.25855064	1.0
191	28.83100128	0	0	-0.1110663339	0.8128781915	-10.24472904	1.0
192	28.83100128	0	0	-0.1108226255	0.8115380406	-10.23116493	1.0
[LeftHandIndex4]
189	23.92700005	0	0	0	0	0	1.0
190	23.92700005	0	0	0	0	0	1.0
191	23.92700005	0	0	0	0	0	1.0
192	23.92700005	0	0	0	0	0	1.0
[LeftHandMiddle1]
189	95.33399963	0	0	-1.534199119	8.685201645	-15.984519	1.0
190	95.33399963	0	0	-1.532465935	8.684167862	-15.97015858	1.0
191	95.33399963	0	0	-1.530775785	8.683159828	-15.95615482	1.0
192	95.33399963	0	0	-1.529117107	8.682169914	-15.94241047	1.0
[LeftHandMiddle2]
189	36.98199844	0	0	-1.433937192	3.831016302	-33.52042007	1.0
190	36.98199844	0	0	-1.432956576	3.829957962	-33.50615692	1.0
191	36.98199844	0	0	-1.432000399	3.828925371	-33.49224854	1.0
192	36.98199844	0	0	-1.431061864	3.827911854	-33.47859955	1.0
[LeftHandMiddle3]
189	29.50900078	0	0	-0.1513860077	1.495527148	-12.36687279	1.0
190	29.50900078	0	0	-0.1510572582	1.494153261	-12.3526907	1.0
191	29.50900078	0	0	-0.1507367194	1.492813349	-12.33886337	1.0
192	29.50900078	0	0	-0.1504220665	1.491498113	-12.32529068	1.0
[LeftHandMiddle4]
189	28.3390007	0	0	0	0	0	1.0
190	28.3390007	0	0	0	0	0	1.0
191	28.3390007	0	0	0	0	0	1.0
192	28.3390007	0	0	0	0	0	1.0
[LeftHandRing1]
189	91.04499817	-0.4390000105	-18.65100098	-2.982796431	11.5310564	-26.65373993	1.0
190	91.04499817	-0.4390000105	-18.65100098	-2.988430977	11.53368378	-26.69616508	1.0
191	91.04499817	-0.4390000105	-18.65100098	-2.993925333	11.53624439	-26.73752975	1.0
192	91.04499817	-0.4390000105	-18.65100098	-2.999318123	11.53875637	-26.77812767	1.0
[LeftHandRing2]
189	31.54000092	0	0	-1.179139256	4.031953335	-39.89962006	1.0
190	31.54000092	0	0	-1.181684613	4.03523159	-39.94159317	1.0
191	31.54000092	0	0	-1.184167147	4.038426399	-39.98251724	1.0
192	31.54000092	0	0	-1.186604023	4.04156208	-40.02267838	1.0
[LeftHandRing3]
189	29.37700081	0	0	-0.08524799347	1.874362826	-19.03797913	1.0
190	29.37700081	0	0	-0.08621272445	1.878395438	-19.07964897	1.0
191	29.37700081	0	0	-0.08715450764	1.882327199	-19.1202774	1.0
192	29.37700081	0	0	-0.08807950467	1.886186242	-19.16015244	1.0
[LeftHandRing4]
189	26.47500038	0	0	0	0	0	1.0
190	26.47500038	0	0	0	0	0	1.0
191	26.47500038	0	0	0	0	0	1.0
192	26.47500038	0	0	0	0	0	1.0
[LeftHandPinky1]
189	80.77799988	-4.887000084	-38.06099701	-5.13497448	16.12376976	-36.5892601	1.0
190	80.77799988	-4.887000084	-38.06099701	-5.14709568	16.124403	-36.63280869	1.0
191	80.77799988	-4.887000084	-38.06099701	-5.158914566	16.12501907	-36.6752739	1.0
192	80.77799988	-4.887000084	-38.06099701	-5.170514107	16.1256237	-36.71694946	1.0
[LeftHandPinky2]
189	36	0	0	-1.923041344	3.797690153	-45.36213303	1.0
190	36	0	0	-1.926171303	3.800450802	-45.40397644	1.0
191	36	0	0	-1.929224133	3.803141117	-45.44477463	1.0
192	36	0	0	-1.932221055	3.805781126	-45.4848175	1.0
[LeftHandPinky3]
189	21.14200211	0	0	-0.5305121541	2.806584835	-20.22717094	1.0
190	21.14200211	0	0	-0.5322909951	2.810365677	-20.26889038	1.0
191	21.14200211	0	0	-0.534026444	2.81405139	-20.30956841	1.0
192	21.14200211	0	0	-0.5357302427	2.8176682	-20.34949112	1.0
[LeftHandPinky4]
189	19.75699997	0	0	0	0	0	1.0
190	19.75699997	0	0	0	0	0	1.0
191	19.75699997	0	0	0	0	0	1.0
192	19.75699997	0	0	0	0	0	1.0
[RightShoulder]
189	-45.70000076	109.4620056	-26.28000069	4.991147041	2.720964432	4.853043556	1.0
190	-45.70000076	109.4620056	-26.28000069	4.966412067	2.721320629	4.967534065	1.0
191	-45.70000076	109.4620056	-26.28000069	4.942203522	2.721330166	5.076882362	1.0
192	-45.70000076	109.4620056	-26.28000069	4.918434143	2.721803665	5.184461594	1.0
[RightArm]
189	-105.9280014	-5.248000145	-22.32099915	0.2254661173	1.436280847	68.18871307	1.0
190	-105.9280014	-5.248000145	-22.32099915	0.2024054676	1.442500949	68.0791626	1.0
191	-105.9280014	-5.248000145	-22.32099915	0.1799329817	1.449305654	67.97457123	1.0
192	-105.9280014	-5.248000145	-22.32099915	0.1599245965	1.455618382	67.87127686	1.0
[RightForeArm]
189	-278.414978	0	0	1.803715008e-07	17.77213097	-2.259089524e-05	1.0
190	-278.414978	0	0	1.148491265e-06	17.76588249	-1.549906847e-05	1.0
191	-278.414978	0	0	1.838950425e-06	17.75905228	-7.398652542e-06	1.0
192	-278.414978	0	0	2.200679546e-06	17.75272179	3.028795561e-07	1.0
[RightHand]
189	-283.2879944	0	0.0009999999311	-12.80749893	-6.78550005	11.80002689	1.0
190	-283.2879944	0	0.0009999999311	-12.77926636	-6.789345741	11.79855919	1.0
191	-283.2879944	0	0.0009999999311	-12.74915791	-6.794222355	11.79533577	1.0
192	-283.2879944	0	0.0009999999311	-12.72302723	-6.79914856	11.79198837	1.0
[RightHandPinky1]
189	-80.76699829	-4.885000229	-38.06000137	-5.134885311	-16.12487221	36.58959579	1.0
190	-80.76699829	-4.885000229	-38.06000137	-5.147005081	-16.12550545	36.63314438	1.0
191	-80.76699829	-4.885000229	-38.06000137	-5.158821583	-16.12612152	36.67560196	1.0
192	-80.76699829	-4.885000229	-38.06000137	-5.170419216	-16.12672806	36.7172699	1.0
[RightHandPinky2]
189	-36	0	0.0009999999311	-1.921673656	-3.796000719	45.36209869	1.0
190	-36	0	0.0009999999311	-1.924802184	-3.798761129	45.40394592	1.0
191	-36	0	0.0009999999311	-1.927853465	-3.801451445	45.4447403	1.0
192	-36	0	0.0009999999311	-1.93084836	-3.804091215	45.48478699	1.0
[RightHandPinky3]
189	-21.14200211	0	0	-0.7518559098	0.08158416301	21.82447052	1.0
190	-21.14200211	0	0	-0.753736794	0.07785513997	21.8660984	1.0
191	-21.14200211	0	0	-0.7555718422	0.07421986759	21.90668678	1.0
192	-21.14200211	0	0	-0.7573736906	0.07065244019	21.94652367	1.0
[RightHandPinky4]
189	-19.75699997	0	0	0	0	0	1.0
190	-19.75699997	0	0	0	0	0	1.0
191	-19.75699997	0	0	0	0	0	1.0
192	-19.75699997	0	0	0	0	0	1.0
[RightHandRing1]
189	-91.03599548	-0.4390000105	-18.65100098	-2.982723951	-11.53069878	26.65387344	1.0
190	-91.03599548	-0.4390000105	-18.65100098	-2.988359928	-11.5333252	26.69630241	1.0
191	-91.03599548	-0.4390000105	-18.65100098	-2.993855476	-11.53588295	26.73766899	1.0
192	-91.03599548	-0.4390000105	-18.65100098	-2.999249458	-11.53839493	26.77826881	1.0
[RightHandRing2]
189	-31.54000092	0	0	-1.178950667	-4.031436443	39.89961624	1.0
190	-31.54000092	0	0	-1.181495547	-4.034715176	39.94158936	1.0
191	-31.54000092	0	0	-1.183977723	-4.037911415	39.98252106	1.0
192	-31.54000092	0	0	-1.186414361	-4.04104805	40.02269363	1.0
[RightHandRing3]
189	-29.37700081	0	0	-0.1320981681	0.1192454621	17.51557541	1.0
190	-29.37700081	0	0	-0.132954523	0.1151884273	17.55721092	1.0
191	-29.37700081	0	0	-0.1337907314	0.1112331226	17.59780693	1.0
192	-29.37700081	0	0	-0.1346120834	0.1073513329	17.63764954	1.0
[RightHandRing4]
189	-26.47500038	0	0	0	0	0	1.0
190	-26.47500038	0	0	0	0	0	1.0
191	-26.47500038	0	0	0	0	0	1.0
192	-26.47500038	0	0	0	0	0	1.0
[RightHandMiddle1]
189	-95.32500458	0	0	-1.534176111	-8.684975624	15.98463726	1.0
190	-95.32500458	0	0	-1.532444835	-8.683941841	15.97027111	1.0
191	-95.32500458	0	0	-1.530756831	-8.682934761	15.95626545	1.0
192	-95.32500458	0	0	-1.529100299	-8.681944847	15.94251728	1.0
[RightHandMiddle2]
189	-36.98199844	0	0	-1.433806539	-3.83057332	33.52045059	1.0
190	-36.98199844	0	0	-1.432826519	-3.829515219	33.50619125	1.0
191	-36.98199844	0	0	-1.431871057	-3.828483582	33.49227905	1.0
192	-36.98199844	0	0	-1.430933356	-3.827471018	33.47862625	1.0
[RightHandMiddle3]
189	-29.50900078	0	0	-0.2564399838	-1.687955499	16.00148392	1.0
190	-29.50900078	0	0	-0.2560249269	-1.686605811	15.98729038	1.0
191	-29.50900078	0	0	-0.2556204796	-1.685289741	15.97344971	1.0
192	-29.50900078	0	0	-0.2552236021	-1.683998227	15.95986652	1.0
[RightHandMiddle4]
189	-28.3390007	0	0.0009999999311	0	0	0	1.0
190	-28.3390007	0	0.0009999999311	0	0	0	1.0
191	-28.3390007	0	0.0009999999311	0	0	0	1.0
192	-28.3390007	0	0.0009999999311	0	0	0	1.0
[RightHandIndex1]
189	-91.08300018	-5.167999744	22.60099792	-0.309645921	-4.680094719	7.947267056	1.0
190	-91.08300018	-5.167999744	22.60099792	-0.3084841073	-4.67873764	7.933035374	1.0
191	-91.08300018	-5.167999744	22.60099792	-0.30735147	-4.677413464	7.919159889	1.0
192	-91.08300018	-5.167999744	22.60099792	-0.3062399328	-4.676114082	7.905542374	1.0
[RightHandIndex2]
189	-36.76399994	0	0	-0.6331405044	-2.779311657	20.67539024	1.0
190	-36.76399994	0	0	-0.6324520111	-2.778042078	20.66117859	1.0
191	-36.76399994	0	0	-0.6317808628	-2.776804447	20.64732361	1.0
192	-36.76399994	0	0	-0.6311222315	-2.775589943	20.63372612	1.0
[RightHandIndex3]
189	-28.83100128	0	0	-0.2409732789	-0.1674313545	13.94673347	1.0
190	-28.83100128	0	0	-0.2406300008	-0.1660476625	13.93255806	1.0
191	-28.83100128	0	0	-0.2402954996	-0.1646985114	13.91873646	1.0
192	-28.83100128	0	0	-0.2399673164	-0.1633743793	13.90517044	1.0
[RightHandIndex4]
189	-23.92700005	0	0	0	0	0	1.0
190	-23.92700005	0	0	0	0	0	1.0
191	-23.92700005	0	0	0	0	0	1.0
192	-23.92700005	0	0	0	0	0	1.0
[RightHandThumb1]
189	-24.64799881	-15.72700024	26.82600021	17.99311829	4.107701302	-10.06431293	1.0
190	-24.64799881	-15.72700024	26.82600021	18.0065155	4.076165199	-10.08747387	1.0
191	-24.64799881	-15.72700024	26.82600021	18.01958847	4.0454216	-10.11006069	1.0
192	-24.64799881	-15.72700024	26.82600021	18.03242493	4.015249729	-10.13223076	1.0
[RightHandThumb2]
189	-32.29800034	-18.64699936	18.64699936	-0.5709583163	-32.48950577	2.919942856	1.0
190	-32.29800034	-18.64699936	18.64699936	-0.555532217	-32.52927017	2.911208868	1.0
191	-32.29800034	-18.64699936	18.64699936	-0.5404878855	-32.56803894	2.902689934	1.0
192	-32.29800034	-18.64699936	18.64699936	-0.5257200599	-32.60608292	2.894327402	1.0
[RightHandThumb3]
189	-26.52600098	-15.31399918	15.31399918	1.792541027	-8.177728653	0.8994486332	1.0
190	-26.52600098	-15.31399918	15.31399918	1.802768826	-8.217497826	0.8898147941	1.0
191	-26.52600098	-15.31399918	15.31399918	1.812744737	-8.25627327	0.880414784	1.0
192	-26.52600098	-15.31399918	15.31399918	1.822537065	-8.29432869	0.8711869717	1.0
[RightHandThumb4]
189	-19.54599953	-11.28499985	11.28499985	0	0	0	1.0
190	-19.54599953	-11.28499985	11.28499985	0	0	0	1.0
191	-19.54599953	-11.28499985	11.28499985	0	0	0	1.0
192	-19.54599953	-11.28499985	11.28499985	0	0	0	1.0
[LeftUpLeg]
189	82.07800293	-67.51699829	-15.99599934	-17.43826103	15.23170376	12.14048576	1.0
190	82.07800293	-67.51699829	-15.99599934	-17.44852448	15.22973633	12.13688946	1.0
191	82.07800293	-67.51699829	-15.99599934	-17.4589653	15.22732735	12.13203716	1.0
192	82.07800293	-67.51699829	-15.99599934	-17.46917343	15.2246685	12.1266489	1.0
[LeftLeg]
189	0	-443.7049866	2.845999956	25.05340767	7.631569386	6.096162796	1.0
190	0	-443.7049866	2.845999956	25.05957603	7.630202293	6.097212791	1.0
191	0	-443.7049866	2.845999956	25.06388092	7.629152775	6.097909451	1.0
192	0	-443.7049866	2.845999956	25.06719208	7.628231049	6.09843111	1.0
[LeftFoot]
189	0	-444.2789917	-29.8219986	-4.035842419	2.751594782	-11.27934456	1.0
190	0	-444.2789917	-29.8219986	-4.041283131	2.763530493	-11.28002644	1.0
191	0	-444.2789917	-29.8219986	-4.046108246	2.777112961	-11.28104591	1.0
192	0	-444.2789917	-29.8219986	-4.050678253	2.791394711	-11.28168201	1.0
[LeftToeBase]
189	0	-87.28699493	107.1060028	-0.4674031734	-2.110219066e-05	-1.850169838e-06	1.0
190	0	-87.28699493	107.1060028	-0.463414222	-1.687204713e-05	-3.629047569e-06	1.0
191	0	-87.28699493	107.1060028	-0.4586085081	-1.212710504e-05	-5.108479399e-06	1.0
192	0	-87.28699493	107.1060028	-0.4540043473	-8.165441614e-06	-5.868542758e-06	1.0
[RightUpLeg]
189	-82.07800293	-67.51699829	-15.99599934	-2.036744595	-4.588882446	11.01240921	1.0
190	-82.07800293	-67.51699829	-15.99599934	-2.047881603	-4.587654591	11.00988674	1.0
191	-82.07800293	-67.51699829	-15.99599934	-2.059899092	-4.586369514	11.00651646	1.0
192	-82.07800293	-67.51699829	-15.99599934	-2.071894407	-4.585150719	11.00279427	1.0
[RightLeg]
189	0	-443.7049866	2.861999989	11.7334938	-5.670690536	2.144193888	1.0
190	0	-443.7049866	2.861999989	11.73840237	-5.668194771	2.145917892	1.0
191	0	-443.7049866	2.861999989	11.74259853	-5.665800571	2.147488356	1.0
192	0	-443.7049866	2.861999989	11.74621201	-5.663329124	2.149007082	1.0
[RightFoot]
189	0	-444.2770081	-29.83799934	-9.829005241	-0.3553176224	-8.084959984	1.0
190	0	-444.2770081	-29.83799934	-9.830085754	-0.3548925519	-8.082000732	1.0
191	0	-444.2770081	-29.83799934	-9.830596924	-0.3543895483	-8.078774452	1.0
192	0	-444.2770081	-29.83799934	-9.830749512	-0.3538630605	-8.075466156	1.0
[RightToeBase]
189	0	-87.28699493	107.1060028	-0.5812592506	1.624364359e-06	-2.224301625e-06	1.0
190	0	-87.28699493	107.1060028	-0.580232501	1.813065182e-06	-1.436061666e-06	1.0
191	0	-87.28699493	107.1060028	-0.5796040297	1.750882006e-06	-3.987324249e-07	1.0
192	0	-87.28699493	107.1060028	-0.5797277689	1.331047429e-06	5.956956102e-07	1.0
[EndOfFile]
